# xmcd
#
# Track frame offsets: 
#        150
#        20582
#        38019
#        58068
#        72072
#        91643
#        106458
#        128970
#        148598
#        163665
#        179900
#        195751
#
# Disc length: 2876 seconds
#
# Revision: 0
# Processed by: cddbd v1.5.2PL0 Copyright (c) Steve Scherf et al.
# Submitted via: ExactAudioCopy v0.95b4
#
DISCID=a10b3a0c
DTITLE=Dave Mason - 26 Letters 12 Notes
DYEAR=2008
DGENRE=Acid Jazz
TTITLE0=Good 2 U
TTITLE1=Let Me Go
TTITLE2=One Day
TTITLE3=Pink Lipstick
TTITLE4=How Do I Get To Heaven
TTITLE5=Ain´t You Legs Tried Baby
TTITLE6=You´re Standing In My Light
TTITLE7=Passing Thru The Flame
TTITLE8=That´s Love
TTITLE9=El Toro
TTITLE10=World Of Hunger
TTITLE11=Full Circle And Then
EXTD=
EXTT0=
EXTT1=
EXTT2=
EXTT3=
EXTT4=
EXTT5=
EXTT6=
EXTT7=
EXTT8=
EXTT9=
EXTT10=
EXTT11=
PLAYORDER=
